<?xml version="1.0" encoding="UTF-8"?>
<svg id="_图层_1" data-name="图层 1" xmlns="http://www.w3.org/2000/svg" viewBox="0 0 242.49 210">
  <polygon points="230.94 0 219.39 0 213.62 10 207.84 20 202.07 30 196.3 40 190.53 50 196.3 60 196.29 60 190.52 50 184.75 60 178.98 69.99 178.98 70 173.2 80 167.43 90 161.66 100 155.88 109.99 161.66 120 161.65 120 155.88 110 150.11 120 144.34 129.99 144.34 130 138.56 140 132.79 149.99 132.79 150 127.01 160 121.24 170 115.47 160 109.69 150 103.92 140 98.15 130 92.38 120 92.37 120 86.6 110 80.83 100 75.05 90 69.28 80 63.51 70 57.73 60 51.96 50 46.19 40 40.41 30 34.64 20 28.87 10 23.09 0 11.54 0 0 0 5.77 10 11.54 20 11.55 20 17.32 30 23.09 40 28.86 50 34.64 60 40.41 70 46.18 80 46.19 80 51.96 90 57.73 100 63.5 110 63.51 110 69.28 120 75.05 130 80.83 140 86.6 150 92.37 160 98.15 170 103.92 180 109.69 190 115.38 199.85 115.47 200 121.24 210 127.02 200 132.79 190 138.56 180 144.34 170 138.56 160 138.57 160 144.34 170 150.11 160 155.88 150 150.11 140 155.89 150 161.66 140 167.43 130.01 167.43 130 173.21 120 178.98 110 184.75 100 190.53 90 196.3 80 202.07 70.01 202.07 70 207.85 60 213.62 50 219.39 40 225.17 30 230.94 20 236.71 10 242.49 0 230.94 0"/>
  <polygon points="57.73 20 63.51 30 69.28 40 75.05 50 75.06 50 80.83 60 86.6 70 92.37 80 92.38 80 98.15 90 103.92 100 109.7 110 115.47 120 121.24 129.99 127.01 120 132.79 110 132.79 109.99 138.56 100 144.33 90 138.56 80 138.57 80 144.34 89.99 150.11 80 155.88 70 161.65 60 167.43 50 167.43 49.99 173.2 40 161.66 40 150.11 40 138.56 40 127.01 40 115.47 40 121.24 50 127.02 60 138.56 60 132.79 70 127.02 80 121.24 90 115.47 80 109.7 70 109.69 70 103.92 60 98.15 50 92.38 40 92.37 40 86.6 30 80.83 20 92.37 20 103.92 20 115.47 20 127.01 20 127.02 20 138.56 20 150.11 20 161.66 20 173.2 20 173.21 20 184.75 20 190.52 10 190.52 9.99 196.29 0 184.75 0 173.2 0 161.66 0 161.65 0 150.11 0 138.57 0 144.34 9.99 144.34 10 138.57 0 138.56 0 127.01 0 115.47 0 103.92 0 92.38 0 98.15 10 92.37 0 80.83 0 69.28 0 57.73 0 46.19 0 51.96 10 57.73 20"/>
</svg>